<svg xmlns="http://www.w3.org/2000/svg" xmlns:xlink="http://www.w3.org/1999/xlink" width="327" height="303" viewBox="0 0 327 303">
  <defs>
    <linearGradient id="linear-gradient" x1="0.5" y1="1.19" x2="0.5" y2="0.427" gradientUnits="objectBoundingBox">
      <stop offset="0" stop-color="#0c0e7e"/>
      <stop offset="0.148" stop-color="#0c0e7e"/>
      <stop offset="1" stop-color="#06073f" stop-opacity="0.42"/>
    </linearGradient>
    <clipPath id="clip-path">
      <rect id="Retângulo_3818" data-name="Retângulo 3818" width="63.457" height="124.941" fill="none" stroke="#707070" stroke-width="4"/>
    </clipPath>
  </defs>
  <g id="Grupo_11362" data-name="Grupo 11362" transform="translate(-290 -5064)">
    <ellipse id="Elipse_16" data-name="Elipse 16" cx="163.5" cy="151.5" rx="163.5" ry="151.5" transform="translate(290 5064)" fill="url(#linear-gradient)"/>
    <g id="Grupo_11166" data-name="Grupo 11166" transform="translate(421.272 5157.762)">
      <g id="Grupo_11165" data-name="Grupo 11165" transform="translate(0 0)" clip-path="url(#clip-path)">
        <ellipse id="Elipse_25" data-name="Elipse 25" cx="21.157" cy="24.967" rx="21.157" ry="24.967" transform="translate(10.572 2.146)" fill="none" stroke="#00e2f5" stroke-linecap="round" stroke-linejoin="round" stroke-width="4"/>
        <line id="Linha_20" data-name="Linha 20" x1="2.923" y2="7.648" transform="translate(22.621 52.08)" fill="none" stroke="#00e2f5" stroke-linecap="round" stroke-linejoin="round" stroke-width="4"/>
        <line id="Linha_21" data-name="Linha 21" x1="2.923" y1="7.648" transform="translate(37.549 52.079)" fill="none" stroke="#00e2f5" stroke-linecap="round" stroke-linejoin="round" stroke-width="4"/>
        <path id="Caminho_4381" data-name="Caminho 4381" d="M30.993,91.5c35.45,0,28.655-62.009,28.655-62.009L43.579,27.355,30.6,37.9,17.588,27.355,1.521,29.488S-5.273,91.5,30.176,91.5Z" transform="translate(1.144 31.299)" fill="none" stroke="#00e2f5" stroke-linecap="round" stroke-linejoin="round" stroke-width="4"/>
        <path id="Caminho_4382" data-name="Caminho 4382" d="M5.242,14.1A25.059,25.059,0,0,0,21.827,6.2s7.024,6.63,22.81,3.315" transform="translate(5.998 7.095)" fill="none" stroke="#00e2f5" stroke-linecap="round" stroke-linejoin="round" stroke-width="4"/>
      </g>
    </g>
  </g>
</svg>
