<svg xmlns="http://www.w3.org/2000/svg" width="121" height="120" viewBox="0 0 121 120">
  <g id="Grupo_11353" data-name="Grupo 11353" transform="translate(-900 -1799)">
    <rect id="Area_SIZE:LARGE_STATE:DEFAULT_STYLE:STYLE2_" data-name="Area [SIZE:LARGE][STATE:DEFAULT][STYLE:STYLE2]" width="121" height="120" rx="60" transform="translate(900 1799)" fill="#fff"/>
    <path id="Caminho_4368" data-name="Caminho 4368" d="M46.9,365.473a13.916,13.916,0,1,0-13.916-13.916A13.916,13.916,0,0,0,46.9,365.473Zm12.37,3.1H53.946a16.82,16.82,0,0,1-14.09,0H34.531a12.369,12.369,0,0,0-12.37,12.367v1.548a4.643,4.643,0,0,0,4.639,4.638H67a4.644,4.644,0,0,0,4.639-4.638v-1.548a12.37,12.37,0,0,0-12.368-12.371h0Z" transform="translate(912.983 1490.533)" fill="none" stroke="#01011e" stroke-miterlimit="10" stroke-width="2"/>
  </g>
</svg>
