<svg xmlns="http://www.w3.org/2000/svg" xmlns:xlink="http://www.w3.org/1999/xlink" width="327" height="303" viewBox="0 0 327 303">
  <defs>
    <linearGradient id="linear-gradient" x1="0.5" y1="1.19" x2="0.5" y2="0.427" gradientUnits="objectBoundingBox">
      <stop offset="0" stop-color="#0c0e7e"/>
      <stop offset="0.148" stop-color="#0c0e7e"/>
      <stop offset="1" stop-color="#06073f" stop-opacity="0.42"/>
    </linearGradient>
    <clipPath id="clip-path">
      <rect id="Retângulo_3815" data-name="Retângulo 3815" width="114.078" height="114.078" fill="none" stroke="#707070" stroke-width="4"/>
    </clipPath>
  </defs>
  <g id="Grupo_11364" data-name="Grupo 11364" transform="translate(-797 -5064)">
    <g id="Grupo_11363" data-name="Grupo 11363">
      <g id="Grupo_11361" data-name="Grupo 11361">
        <g id="Grupo_11167" data-name="Grupo 11167" transform="translate(0 -364)">
          <ellipse id="Elipse_22" data-name="Elipse 22" cx="163.5" cy="151.5" rx="163.5" ry="151.5" transform="translate(797 5428)" fill="url(#linear-gradient)"/>
        </g>
        <g id="Grupo_11161" data-name="Grupo 11161" transform="translate(907.99 5151)" clip-path="url(#clip-path)">
          <path id="Caminho_4375" data-name="Caminho 4375" d="M113.11,57.055A56.055,56.055,0,1,1,57.055,1,56.055,56.055,0,0,1,113.11,57.055Z" transform="translate(-0.016 -0.016)" fill="none" stroke="#00e2f5" stroke-linecap="round" stroke-linejoin="round" stroke-width="4"/>
          <path id="Caminho_4376" data-name="Caminho 4376" d="M23.228,49.023a35.2,35.2,0,1,1-1,8.372,35.186,35.186,0,0,1,1-8.372" transform="translate(-0.357 -0.357)" fill="none" stroke="#00e2f5" stroke-linecap="round" stroke-linejoin="round" stroke-width="4"/>
        </g>
      </g>
    </g>
    <line id="Linha_22" data-name="Linha 22" x1="36.398" y2="36.398" transform="translate(882.966 5240.51)" fill="none" stroke="#00e2f5" stroke-width="4"/>
    <line id="Linha_23" data-name="Linha 23" x1="34.881" y2="34.881" transform="translate(898.89 5255.22)" fill="none" stroke="#00e2f5" stroke-width="4"/>
  </g>
</svg>
