<svg xmlns="http://www.w3.org/2000/svg" xmlns:xlink="http://www.w3.org/1999/xlink" width="327" height="303" viewBox="0 0 327 303">
  <defs>
    <linearGradient id="linear-gradient" x1="0.5" y1="1.19" x2="0.5" y2="0.427" gradientUnits="objectBoundingBox">
      <stop offset="0" stop-color="#0c0e7e"/>
      <stop offset="0.148" stop-color="#0c0e7e"/>
      <stop offset="1" stop-color="#06073f" stop-opacity="0.42"/>
    </linearGradient>
    <clipPath id="clip-path">
      <rect id="Retângulo_3813" data-name="Retângulo 3813" width="150.441" height="150.441" fill="none" stroke="#707070" stroke-width="4"/>
    </clipPath>
  </defs>
  <g id="Grupo_11358" data-name="Grupo 11358" transform="translate(-797 -4231)">
    <ellipse id="Elipse_16" data-name="Elipse 16" cx="163.5" cy="151.5" rx="163.5" ry="151.5" transform="translate(797 4231)" fill="url(#linear-gradient)"/>
    <g id="Grupo_11158" data-name="Grupo 11158" transform="translate(877.966 4306.66)" clip-path="url(#clip-path)">
      <path id="Caminho_4372" data-name="Caminho 4372" d="M148.846,74.923A73.923,73.923,0,1,1,74.922,1,73.923,73.923,0,0,1,148.846,74.923Z" transform="translate(0.298 0.297)" fill="none" stroke="#00e2f5" stroke-linecap="round" stroke-linejoin="round" stroke-width="4"/>
      <path id="Caminho_4373" data-name="Caminho 4373" d="M23.547,57.565a46.423,46.423,0,1,1-1.322,11.041,46.4,46.4,0,0,1,1.322-11.041" transform="translate(6.614 6.614)" fill="none" stroke="#00e2f5" stroke-linecap="round" stroke-linejoin="round" stroke-width="4"/>
      <path id="Caminho_4374" data-name="Caminho 4374" d="M81.542,62.367A19.174,19.174,0,1,1,62.368,43.192,19.175,19.175,0,0,1,81.542,62.367" transform="translate(12.854 12.854)" fill="#00e2f5"/>
    </g>
  </g>
</svg>
