<svg id="Grupo_11169" data-name="Grupo 11169" xmlns="http://www.w3.org/2000/svg" xmlns:xlink="http://www.w3.org/1999/xlink" width="172" height="109.689" viewBox="0 0 172 109.689">
  <defs>
    <clipPath id="clip-path">
      <rect id="Retângulo_3819" data-name="Retângulo 3819" width="172" height="109.689" fill="none" stroke="#707070" stroke-width="4"/>
    </clipPath>
  </defs>
  <g id="Grupo_11168" data-name="Grupo 11168" transform="translate(0 0)" clip-path="url(#clip-path)">
    <path id="Caminho_4383" data-name="Caminho 4383" d="M64.26,46.651c.2-21.853,5.5-44.429,26.426-45.049a1.694,1.694,0,0,1,.449,0,1.694,1.694,0,0,1,.449,0c21.862.647,26.679,22.331,26.431,45.049" transform="translate(52.162 1.289)" fill="none" stroke="#00e2f5" stroke-linecap="round" stroke-linejoin="round" stroke-width="4"/>
    <path id="Caminho_4384" data-name="Caminho 4384" d="M40.619,18.5v.018c0,10.635-7.99,19.241-17.864,19.241C13.624,37.759,6.087,30.4,5,20.892a5.154,5.154,0,0,0,1.594.254,5.013,5.013,0,0,0,4.439-2.681,8.378,8.378,0,0,0,7.048-5.689,8.276,8.276,0,0,0,4.095,1.866,8.518,8.518,0,0,0,6.359-1.594A8.387,8.387,0,0,0,34.1,16.489a8.1,8.1,0,0,0,2.192.036,5.019,5.019,0,0,0,4,1.993A1.969,1.969,0,0,0,40.619,18.5Z" transform="translate(4.059 10.37)" fill="none" stroke="#00e2f5" stroke-linecap="round" stroke-linejoin="round" stroke-width="4"/>
    <line id="Linha_24" data-name="Linha 24" x1="2.469" y2="6.462" transform="translate(19.114 48.125)" fill="none" stroke="#00e2f5" stroke-linecap="round" stroke-linejoin="round" stroke-width="4"/>
    <line id="Linha_25" data-name="Linha 25" x1="2.469" y1="6.462" transform="translate(31.728 48.124)" fill="none" stroke="#00e2f5" stroke-linecap="round" stroke-linejoin="round" stroke-width="4"/>
    <path id="Caminho_4385" data-name="Caminho 4385" d="M26.343,83.827c29.953,0,24.212-52.4,24.212-52.4l-13.577-1.8-10.97,8.906L15.016,29.629l-13.575,1.8s-5.741,52.4,24.212,52.4Z" transform="translate(0.811 24.051)" fill="none" stroke="#00e2f5" stroke-linecap="round" stroke-linejoin="round" stroke-width="4"/>
    <ellipse id="Elipse_26" data-name="Elipse 26" cx="17.876" cy="19.231" rx="17.876" ry="19.231" transform="translate(125.425 9.662)" fill="none" stroke="#00e2f5" stroke-linecap="round" stroke-linejoin="round" stroke-width="4"/>
    <line id="Linha_26" data-name="Linha 26" x1="2.469" y2="6.462" transform="translate(135.606 48.125)" fill="none" stroke="#00e2f5" stroke-linecap="round" stroke-linejoin="round" stroke-width="4"/>
    <line id="Linha_27" data-name="Linha 27" x1="2.469" y1="6.462" transform="translate(148.22 48.124)" fill="none" stroke="#00e2f5" stroke-linecap="round" stroke-linejoin="round" stroke-width="4"/>
    <path id="Caminho_4386" data-name="Caminho 4386" d="M90.642,83.827c29.953,0,24.212-52.4,24.212-52.4l-13.577-1.8-10.97,8.906L79.315,29.629l-13.575,1.8S60,83.827,89.951,83.827Z" transform="translate(53.005 24.051)" fill="none" stroke="#00e2f5" stroke-linecap="round" stroke-linejoin="round" stroke-width="4"/>
    <line id="Linha_28" data-name="Linha 28" x2="4.529" transform="translate(51.688 72.357)" fill="none" stroke="#00e2f5" stroke-linecap="round" stroke-linejoin="round" stroke-width="4"/>
    <line id="Linha_29" data-name="Linha 29" x2="45.224" transform="translate(64.439 72.357)" fill="none" stroke="#00e2f5" stroke-linecap="round" stroke-linejoin="round" stroke-width="4" stroke-dasharray="4.539 4.539"/>
    <line id="Linha_30" data-name="Linha 30" x2="4.529" transform="translate(113.775 72.357)" fill="none" stroke="#00e2f5" stroke-linecap="round" stroke-linejoin="round" stroke-width="4"/>
    <path id="Caminho_4387" data-name="Caminho 4387" d="M73.047,7.575s4.364,9.734,13.307,10.2,14.1.076,15.528,4.971" transform="translate(59.294 6.149)" fill="none" stroke="#00e2f5" stroke-linecap="round" stroke-linejoin="round" stroke-width="4"/>
    <line id="Linha_31" data-name="Linha 31" y1="0.717" x2="20.645" transform="translate(149.534 47.939)" fill="none" stroke="#00e2f5" stroke-linecap="round" stroke-linejoin="round" stroke-width="4"/>
    <line id="Linha_32" data-name="Linha 32" x1="20.645" y1="0.717" transform="translate(116.416 47.939)" fill="none" stroke="#00e2f5" stroke-linecap="round" stroke-linejoin="round" stroke-width="4"/>
    <path id="Caminho_4388" data-name="Caminho 4388" d="M46.837,23.076a5,5,0,0,1-4.692,4.982,1.969,1.969,0,0,1-.326.018,5.019,5.019,0,0,1-4-1.993,8.1,8.1,0,0,1-2.192-.036A8.387,8.387,0,0,1,30.06,22.6,8.518,8.518,0,0,1,23.7,24.2a8.276,8.276,0,0,1-4.095-1.866,8.378,8.378,0,0,1-7.048,5.689A5.013,5.013,0,0,1,8.12,30.7a5.154,5.154,0,0,1-1.594-.254A5.015,5.015,0,0,1,3.12,25.685a4.92,4.92,0,0,1,.8-2.7A8.411,8.411,0,0,1,7.251,12.55a7.656,7.656,0,0,1,.054-2.029A8.391,8.391,0,0,1,21.418,5.774,8.391,8.391,0,0,1,37.38,9.361c.272.018.544.054.833.091a8.4,8.4,0,0,1,6.993,9.584c-.018.091-.036.2-.054.29A5.026,5.026,0,0,1,46.837,23.076Z" transform="translate(2.533 0.811)" fill="none" stroke="#00e2f5" stroke-linecap="round" stroke-linejoin="round" stroke-width="4"/>
  </g>
</svg>
