<svg xmlns="http://www.w3.org/2000/svg" width="121" height="120" viewBox="0 0 121 120">
  <g id="Grupo_11352" data-name="Grupo 11352" transform="translate(-1419 -1799)">
    <rect id="Area_SIZE:LARGE_STATE:DEFAULT_STYLE:STYLE2_" data-name="Area [SIZE:LARGE][STATE:DEFAULT][STYLE:STYLE2]" width="121" height="120" rx="60" transform="translate(1419 1799)" fill="#fff"/>
    <path id="Icon_awesome-angle-double-up" data-name="Icon awesome-angle-double-up" d="M23.575,30.492,41.687,48.6a3.183,3.183,0,0,1,0,4.515l-3.01,3.01a3.183,3.183,0,0,1-4.515,0L21.311,43.3,8.473,56.141a3.183,3.183,0,0,1-4.515,0L.935,53.132a3.183,3.183,0,0,1,0-4.515L19.047,30.505A3.187,3.187,0,0,1,23.575,30.492ZM19.047,4.922.935,23.034a3.183,3.183,0,0,0,0,4.515l3.01,3.01a3.183,3.183,0,0,0,4.515,0L21.3,17.72,34.136,30.558a3.183,3.183,0,0,0,4.515,0l3.01-3.01a3.183,3.183,0,0,0,0-4.515L23.549,4.922a3.167,3.167,0,0,0-4.5,0Z" transform="translate(1458.58 1824.191)" fill="none" stroke="#01011e" stroke-width="2"/>
  </g>
</svg>
