<svg id="Grupo_11119" data-name="Grupo 11119" xmlns="http://www.w3.org/2000/svg" xmlns:xlink="http://www.w3.org/1999/xlink" width="308.205" height="805.542" viewBox="0 0 308.205 805.542">
  <defs>
    <clipPath id="clip-path">
      <rect id="Retângulo_3781" data-name="Retângulo 3781" width="308.205" height="805.543" fill="none"/>
    </clipPath>
  </defs>
  <g id="Grupo_11112" data-name="Grupo 11112">
    <g id="Grupo_11111" data-name="Grupo 11111" clip-path="url(#clip-path)">
      <path id="Caminho_4342" data-name="Caminho 4342" d="M0,679.813H123.215V596.149" transform="translate(0 -65.915)" fill="none" stroke="#00e2f5" stroke-miterlimit="10" stroke-width="2"/>
    </g>
  </g>
  <line id="Linha_11" data-name="Linha 11" y1="138.023" transform="translate(79.614 434.043)" fill="none" stroke="#00e2f5" stroke-miterlimit="10" stroke-width="2"/>
  <path id="Caminho_4343" data-name="Caminho 4343" d="M189.511,499V669.015h60.871" transform="translate(-20.954 -55.173)" fill="none" stroke="#00e2f5" stroke-miterlimit="10" stroke-width="2"/>
  <g id="Grupo_11114" data-name="Grupo 11114">
    <g id="Grupo_11113" data-name="Grupo 11113" clip-path="url(#clip-path)">
      <path id="Caminho_4344" data-name="Caminho 4344" d="M0,539.064H21.479l18.1,14.751v77.854" transform="translate(0 -59.603)" fill="none" stroke="#00e2f5" stroke-miterlimit="10" stroke-width="2"/>
    </g>
  </g>
  <path id="Caminho_4345" data-name="Caminho 4345" d="M240.66,629.862V548.157l15.377-25.433h49.454" transform="translate(-26.609 -57.796)" fill="none" stroke="#00e2f5" stroke-miterlimit="10" stroke-width="2"/>
  <line id="Linha_12" data-name="Linha 12" y2="141.76" transform="translate(39.58 613.841)" fill="none" stroke="#00e2f5" stroke-miterlimit="10" stroke-width="2"/>
  <g id="Grupo_11116" data-name="Grupo 11116">
    <g id="Grupo_11115" data-name="Grupo 11115" clip-path="url(#clip-path)">
      <path id="Caminho_4346" data-name="Caminho 4346" d="M0,885.033H61.607l18.007-34.518V726.979" transform="translate(0 -80.38)" fill="none" stroke="#00e2f5" stroke-miterlimit="10" stroke-width="2"/>
    </g>
  </g>
  <line id="Linha_13" data-name="Linha 13" x2="58.135" transform="translate(79.614 699.284)" fill="none" stroke="#00e2f5" stroke-miterlimit="10" stroke-width="2"/>
  <g id="Grupo_11118" data-name="Grupo 11118">
    <g id="Grupo_11117" data-name="Grupo 11117" clip-path="url(#clip-path)">
      <path id="Caminho_4347" data-name="Caminho 4347" d="M169.316,798.783c-19.439-.087-19.438-29.644,0-29.728C188.755,769.141,188.753,798.7,169.316,798.783Z" transform="translate(-17.109 -85.032)" fill="none" stroke="#00e2f5" stroke-miterlimit="10" stroke-width="2"/>
      <path id="Caminho_4348" data-name="Caminho 4348" d="M136.316,592.782c-19.439-.087-19.438-29.644,0-29.728C155.755,563.141,155.753,592.7,136.316,592.782Z" transform="translate(-13.46 -62.255)" fill="none" stroke="#00e2f5" stroke-miterlimit="10" stroke-width="2"/>
      <path id="Caminho_4349" data-name="Caminho 4349" d="M327.316,535.782c-19.439-.087-19.438-29.644,0-29.728C346.755,506.141,346.753,535.7,327.316,535.782Z" transform="translate(-34.578 -55.953)" fill="none" stroke="#00e2f5" stroke-miterlimit="10" stroke-width="2"/>
      <path id="Caminho_4350" data-name="Caminho 4350" d="M0,215.468H123.215v83.664" transform="translate(0 -23.824)" fill="none" stroke="#00e2f5" stroke-miterlimit="10" stroke-width="2"/>
      <line id="Linha_14" data-name="Linha 14" y2="138.023" transform="translate(79.614 233.476)" fill="none" stroke="#00e2f5" stroke-miterlimit="10" stroke-width="2"/>
      <path id="Caminho_4351" data-name="Caminho 4351" d="M189.511,385.546V215.532h60.871" transform="translate(-20.954 -23.831)" fill="none" stroke="#00e2f5" stroke-miterlimit="10" stroke-width="2"/>
      <path id="Caminho_4352" data-name="Caminho 4352" d="M0,355.105H21.479l18.1-14.751V262.5" transform="translate(0 -29.024)" fill="none" stroke="#00e2f5" stroke-miterlimit="10" stroke-width="2"/>
      <path id="Caminho_4353" data-name="Caminho 4353" d="M240.66,262.5v81.705l15.377,25.433h49.454" transform="translate(-26.609 -29.024)" fill="none" stroke="#00e2f5" stroke-miterlimit="10" stroke-width="2"/>
      <line id="Linha_15" data-name="Linha 15" y1="141.76" transform="translate(39.58 49.941)" fill="none" stroke="#00e2f5" stroke-miterlimit="10" stroke-width="2"/>
      <path id="Caminho_4354" data-name="Caminho 4354" d="M0,1H61.607L79.614,35.518V159.054" transform="translate(0 -0.111)" fill="none" stroke="#00e2f5" stroke-miterlimit="10" stroke-width="2"/>
      <line id="Linha_16" data-name="Linha 16" x2="58.135" transform="translate(79.614 106.259)" fill="none" stroke="#00e2f5" stroke-miterlimit="10" stroke-width="2"/>
      <path id="Caminho_4355" data-name="Caminho 4355" d="M169.316,103.2c-19.439.087-19.438,29.644,0,29.728C188.755,132.844,188.753,103.288,169.316,103.2Z" transform="translate(-17.109 -11.411)" fill="none" stroke="#00e2f5" stroke-miterlimit="10" stroke-width="2"/>
      <path id="Caminho_4356" data-name="Caminho 4356" d="M136.316,309.2c-19.439.087-19.438,29.644,0,29.728C155.755,338.844,155.753,309.288,136.316,309.2Z" transform="translate(-13.46 -34.188)" fill="none" stroke="#00e2f5" stroke-miterlimit="10" stroke-width="2"/>
      <path id="Caminho_4357" data-name="Caminho 4357" d="M327.316,366.2c-19.439.087-19.438,29.644,0,29.728C346.755,395.844,346.753,366.288,327.316,366.2Z" transform="translate(-34.578 -40.49)" fill="none" stroke="#00e2f5" stroke-miterlimit="10" stroke-width="2"/>
    </g>
  </g>
</svg>
